<?xml version="1.0" standalone="no"?>
<!DOCTYPE svg PUBLIC "-//W3C//DTD SVG 20010904//EN"
 "http://www.w3.org/TR/2001/REC-SVG-20010904/DTD/svg10.dtd">
<svg version="1.0" xmlns="http://www.w3.org/2000/svg"
 width="250.000000pt" height="250.000000pt" viewBox="0 0 250.000000 250.000000"
 preserveAspectRatio="xMidYMid meet">
<metadata>
Created by potrace 1.11, written by Peter Selinger 2001-2013
</metadata>
<g transform="translate(0.000000,250.000000) scale(0.100000,-0.100000)"
fill="#000000" stroke="none">
<path d="M1664 2360 c-64 -13 -164 -71 -212 -122 -22 -24 -22 -25 -4 -49 11
-13 34 -49 51 -79 18 -30 29 -44 26 -31 -6 20 -4 23 9 18 10 -4 15 -3 12 2 -3
5 10 26 29 47 20 21 33 44 30 52 -7 20 20 43 42 35 15 -6 16 -5 5 9 -11 14
-10 17 7 23 29 9 35 36 10 42 -38 10 1 21 43 12 56 -13 79 8 41 37 -20 15 -30
15 -89 4z m71 -20 c3 -5 -1 -10 -9 -10 -9 0 -16 5 -16 10 0 6 4 10 9 10 6 0
13 -4 16 -10z"/>
<path d="M1012 2220 c-15 -25 -15 -33 0 -24 7 4 8 3 4 -4 -9 -15 -12 -15 -29
2 -11 12 -15 11 -27 -8 -11 -18 -11 -19 1 -9 13 10 18 7 33 -17 19 -34 10 -64
-24 -75 -24 -8 -40 -62 -28 -91 10 -20 10 -20 38 8 16 15 36 28 44 28 9 0 16
4 16 9 0 5 3 16 6 24 4 12 0 14 -15 10 -12 -3 -21 -1 -21 3 1 15 72 64 94 64
20 1 20 1 3 11 -10 6 -30 8 -45 5 l-27 -6 23 19 c23 20 23 20 3 31 -16 8 -19
8 -15 -3 3 -8 -1 -17 -8 -20 -15 -5 -18 29 -5 51 5 6 4 12 0 12 -5 0 -14 -9
-21 -20z"/>
<path d="M925 2129 c-9 -17 -15 -33 -13 -35 3 -2 12 12 21 31 21 43 13 47 -8
4z"/>
<path d="M1206 2135 c-9 -9 -16 -22 -16 -29 0 -8 -7 -19 -15 -26 -8 -7 -15
-21 -15 -31 0 -10 -6 -22 -14 -26 -10 -6 -15 -32 -18 -91 -2 -45 0 -82 5 -82
6 0 12 76 8 108 -3 16 51 122 61 122 4 0 8 8 8 18 0 10 5 23 12 30 6 6 9 14 6
17 -3 3 -13 -1 -22 -10z"/>
<path d="M1870 2031 c0 -7 -9 -9 -24 -5 -13 3 -26 1 -30 -4 -3 -5 6 -42 20
-82 20 -58 24 -85 20 -131 -3 -33 -10 -68 -16 -79 -6 -11 -8 -25 -5 -30 3 -5
0 -12 -6 -16 -8 -4 -9 -3 -5 4 4 7 3 12 -3 12 -5 0 -11 -6 -14 -12 -2 -7 -8
-10 -12 -6 -4 4 5 28 19 53 15 25 23 45 18 45 -5 0 -15 -12 -22 -27 -11 -25
-13 -26 -19 -9 -7 17 -8 17 -14 3 -3 -9 -14 -16 -24 -16 -72 -2 -82 0 -76 16
3 7 2 13 -1 13 -4 0 -11 -12 -16 -26 -8 -20 -15 -24 -30 -19 -12 4 -26 2 -33
-3 -7 -5 -25 -12 -42 -16 -47 -10 -85 -27 -85 -38 0 -5 4 -7 8 -4 5 3 9 -13
10 -35 2 -37 -4 -46 -74 -119 -120 -124 -139 -158 -149 -270 -3 -30 -8 -81
-11 -112 -3 -32 -4 -58 -1 -58 2 0 35 12 73 26 114 43 208 57 198 30 -3 -7
-16 -19 -29 -26 -18 -10 -26 -26 -34 -75 -15 -84 -14 -176 3 -244 8 -31 17
-82 21 -115 l7 -59 74 6 c41 3 72 2 69 -2 -2 -5 33 -11 78 -14 62 -4 114 -17
212 -51 135 -47 170 -56 122 -30 -15 8 -25 19 -21 25 3 6 -5 7 -23 3 -27 -6
-27 -6 -8 9 19 16 19 16 -15 17 -30 1 -32 3 -15 11 16 7 13 8 -12 5 -27 -4
-31 -3 -26 11 4 10 2 14 -4 10 -6 -4 -30 0 -53 8 -23 8 -46 12 -52 9 -5 -3
-15 0 -23 6 -8 7 -21 10 -29 7 -12 -5 -13 -1 -7 16 7 19 15 22 57 20 78 -3
114 -7 114 -15 0 -4 7 -5 15 -2 10 4 15 0 15 -15 0 -14 12 -27 39 -40 40 -21
54 -19 44 5 -3 8 1 14 11 14 9 0 16 7 16 15 0 8 -6 15 -13 15 -8 0 -14 7 -14
15 0 8 9 15 21 15 20 0 20 0 0 15 -10 8 -14 15 -7 15 7 0 1 12 -13 27 -22 24
-23 28 -8 36 15 9 15 12 -7 28 l-24 19 25 0 c18 0 21 3 11 9 -11 7 -10 10 5
14 15 4 15 5 -5 6 -17 1 -22 5 -17 19 5 14 3 13 -10 -3 -16 -20 -16 -20 -10 1
5 18 1 23 -21 29 l-28 8 33 9 c19 5 30 13 26 19 -4 8 -9 8 -13 1 -10 -16 -63
-2 -57 15 3 8 2 12 -3 8 -13 -7 -41 5 -41 19 0 18 -117 143 -133 143 -9 0 -13
-6 -10 -14 3 -7 9 -13 13 -13 12 0 40 -88 40 -123 0 -68 -23 -161 -45 -183
-40 -39 -67 -92 -60 -115 6 -17 3 -20 -12 -17 -18 4 -19 4 -11 101 2 28 -2 41
-15 48 -9 6 -17 21 -17 34 0 14 -5 25 -11 25 -7 0 -9 10 -7 25 4 16 1 25 -8
25 -10 0 -13 25 -11 115 2 126 -3 118 72 114 85 -4 107 -1 123 16 16 17 16 17
-5 12 -13 -3 -23 -4 -23 -3 0 1 30 27 68 56 37 30 68 57 70 61 2 4 12 18 24
31 11 12 25 35 30 51 6 15 17 27 25 27 8 0 11 4 8 10 -3 5 1 23 10 39 17 35
19 51 5 51 -5 0 -10 -7 -10 -15 0 -8 -9 -15 -20 -15 -22 0 -25 8 -9 30 9 13
10 12 5 -3 -4 -11 -2 -16 5 -12 6 4 8 14 5 22 -3 8 1 24 9 36 9 14 11 27 5 37
-7 12 -10 11 -15 -5 -3 -11 -14 -35 -23 -54 -9 -19 -18 -38 -18 -43 -1 -4 -2
-14 -3 -20 -1 -7 -9 -23 -19 -36 l-18 -23 1 35 c1 19 10 46 21 61 34 48 44 69
44 93 0 12 -4 22 -10 22 -5 0 -10 -5 -10 -11 0 -7 -9 -21 -20 -33 -12 -12 -32
-34 -45 -51 -13 -16 -27 -27 -31 -23 -4 5 0 16 9 26 10 10 17 23 17 29 0 6 6
14 13 16 8 4 8 6 0 6 -16 1 -53 -48 -53 -70 0 -11 6 -19 13 -19 8 -1 7 -5 -3
-13 -9 -7 -22 -28 -30 -47 -8 -19 -27 -60 -42 -90 -30 -58 -33 -70 -20 -70 5
0 24 27 43 60 19 33 37 60 42 60 10 0 9 -18 -3 -25 -18 -11 -11 -23 10 -18 11
3 20 0 20 -5 0 -17 -60 -82 -91 -98 -37 -18 -56 -19 -40 -1 6 8 8 17 4 20 -8
9 18 127 28 127 5 0 9 5 9 10 0 22 -17 8 -33 -26 -16 -32 -20 -34 -34 -22 -15
12 -16 10 -10 -12 8 -31 -2 -72 -14 -64 -5 3 -7 20 -4 37 18 108 18 104 1 83
-10 -13 -16 -40 -16 -77 0 -57 0 -58 -27 -56 -23 2 -31 -5 -45 -33 -10 -19
-18 -29 -18 -22 0 6 -4 12 -10 12 -5 0 -10 -10 -10 -21 0 -21 -4 -21 -100 -17
-90 3 -121 10 -109 23 3 2 35 0 73 -6 66 -11 94 -6 67 10 -9 6 -11 18 -6 42
l7 33 13 -30 c8 -16 14 -22 14 -14 1 9 -6 26 -15 38 -12 18 -15 42 -13 107 4
79 6 86 37 118 18 19 45 40 60 48 15 7 43 26 64 41 51 39 102 60 116 46 7 -7
20 -3 45 16 35 27 71 34 82 16 4 -6 11 -8 16 -5 16 10 9 48 -15 87 l-23 38
-13 -25 c-7 -14 -15 -23 -17 -21 -3 2 1 14 7 26 6 12 13 38 15 59 5 51 9 65
17 71 4 3 10 31 14 62 6 49 4 60 -15 84 -11 15 -21 22 -21 15z m-168 -883 c-7
-7 -12 -8 -12 -2 0 14 12 26 19 19 2 -3 -1 -11 -7 -17z m-212 -142 c0 -3 -4
-8 -10 -11 -5 -3 -10 -1 -10 4 0 6 5 11 10 11 6 0 10 -2 10 -4z m10 -177 c0
-5 -4 -9 -10 -9 -5 0 -7 -15 -5 -32 4 -29 4 -30 -4 -8 -15 42 -13 70 4 64 8
-4 15 -10 15 -15z"/>
<path d="M990 2000 c-13 -11 -21 -23 -18 -26 3 -3 19 6 34 20 16 14 24 26 18
26 -6 0 -21 -9 -34 -20z"/>
<path d="M1290 1971 c0 -27 -17 -35 -23 -11 -8 32 -26 23 -43 -20 -9 -22 -22
-40 -30 -40 -15 0 -16 -8 -21 -110 -1 -36 -4 -96 -6 -135 -2 -38 -1 -62 1 -52
2 9 10 17 17 17 8 0 19 18 25 41 6 23 14 39 16 36 7 -6 -17 -90 -28 -98 -4 -3
-9 -21 -11 -40 -3 -21 -10 -35 -21 -37 -17 -4 -23 -22 -6 -22 6 0 10 -7 10
-16 0 -11 -6 -13 -19 -9 -18 5 -19 2 -15 -32 2 -21 -6 5 -19 57 -28 116 -45
150 -97 191 -22 18 -42 40 -45 49 -5 17 -8 16 -45 -3 -23 -13 -45 -36 -55 -57
l-17 -35 -24 30 c-21 27 -29 30 -76 28 -71 -2 -112 -7 -118 -14 -10 -12 -85
-49 -100 -49 -9 0 -22 -6 -29 -12 -11 -11 -12 -8 -7 15 8 32 -8 36 -26 7 -23
-36 -28 -21 -6 18 29 51 12 32 -57 -62 -64 -88 -84 -129 -79 -166 3 -29 -22
-115 -44 -148 -8 -12 -13 -25 -10 -27 3 -3 45 15 94 40 49 24 99 45 110 45 27
0 134 78 163 118 11 17 32 53 45 82 33 71 53 90 93 90 39 0 93 -25 93 -43 0
-6 13 -25 28 -42 15 -16 41 -57 57 -90 15 -33 51 -100 79 -150 27 -49 58 -107
69 -127 10 -21 22 -38 26 -38 6 0 48 64 179 266 23 36 42 70 42 75 0 6 6 7 13
3 6 -4 9 -3 4 1 -4 5 0 17 10 27 24 27 9 34 -18 7 -25 -25 -26 -26 12 79 21
56 31 67 60 64 3 -1 6 5 6 13 0 8 -4 12 -8 10 -4 -3 -10 19 -13 47 -11 106
-19 143 -32 151 -8 4 -14 21 -14 37 0 35 -15 47 -30 23 -8 -15 -9 -13 -4 10 7
31 -3 35 -22 10 -13 -17 -13 -17 -14 0 0 24 -20 22 -20 -2z m-85 -288 c-7 -25
-8 -26 -15 -8 -4 10 -2 25 4 31 16 17 20 9 11 -23z m51 -125 l-16 -22 0 26 c0
15 5 30 10 33 6 3 11 16 12 28 1 12 3 8 5 -10 3 -20 -2 -42 -11 -55z m-19 50
c-3 -8 -6 -5 -6 6 -1 11 2 17 5 13 3 -3 4 -12 1 -19z m79 -35 c-25 -25 -32
-21 -20 11 3 9 12 16 20 16 8 0 14 6 15 13 0 9 2 9 6 -1 3 -7 -7 -24 -21 -39z
m7 -43 c-3 -12 -8 -19 -11 -16 -5 6 5 36 12 36 2 0 2 -9 -1 -20z m-962 -57
c-12 -20 -14 -14 -5 12 4 9 9 14 11 11 3 -2 0 -13 -6 -23z m640 -20 c13 -16
12 -17 -3 -4 -17 13 -22 21 -14 21 2 0 10 -8 17 -17z"/>
<path d="M1647 1953 c-4 -3 -7 -11 -7 -17 0 -6 5 -5 12 2 6 6 9 14 7 17 -3 3
-9 2 -12 -2z"/>
<path d="M1101 1924 c0 -11 3 -14 6 -6 3 7 2 16 -1 19 -3 4 -6 -2 -5 -13z"/>
<path d="M2114 1862 c-25 -18 -52 -53 -73 -93 -19 -35 -43 -74 -54 -86 -11
-13 -15 -23 -9 -23 6 0 17 9 25 20 8 11 17 17 20 13 4 -3 7 3 7 14 0 20 31 63
45 63 4 0 4 -8 0 -17 -5 -14 -4 -15 6 -6 9 10 10 15 0 27 -8 10 -9 16 -1 21 5
3 10 3 10 -1 0 -4 8 3 19 14 10 12 21 19 24 15 12 -11 37 19 37 43 0 31 -8 30
-56 -4z"/>
<path d="M2187 1875 c-8 -20 -4 -29 11 -24 5 2 6 13 2 23 -6 19 -7 19 -13 1z"/>
<path d="M2210 1876 c0 -2 8 -10 18 -17 15 -13 16 -12 3 4 -13 16 -21 21 -21
13z"/>
<path d="M1690 1863 c-18 -8 -55 -42 -49 -46 9 -9 69 24 69 38 0 8 -1 15 -2
14 -2 0 -10 -3 -18 -6z"/>
<path d="M1735 1851 c-3 -5 -1 -12 5 -16 5 -3 10 1 10 9 0 18 -6 21 -15 7z"/>
<path d="M770 1820 c-8 -5 -33 -10 -55 -11 l-40 -2 45 -7 c25 -4 53 -10 63
-15 10 -4 17 -3 17 3 0 6 -8 13 -17 15 -17 4 -17 5 0 6 9 0 17 6 17 11 0 13
-11 13 -30 0z"/>
<path d="M1890 1813 c0 -12 5 -25 10 -28 13 -8 13 15 0 35 -8 12 -10 11 -10
-7z"/>
<path d="M1911 1584 c0 -11 3 -14 6 -6 3 7 2 16 -1 19 -3 4 -6 -2 -5 -13z"/>
<path d="M2052 1500 c0 -14 2 -19 5 -12 2 6 2 18 0 25 -3 6 -5 1 -5 -13z"/>
<path d="M2045 1449 c-4 -5 2 -6 12 -2 17 6 17 5 1 -14 -27 -30 -21 -40 7 -13
14 13 25 26 25 30 0 10 -39 10 -45 -1z"/>
<path d="M1223 1188 c-72 -203 -102 -296 -103 -312 0 -31 12 -10 36 62 46 137
64 185 75 198 5 7 9 29 7 49 l-3 37 -12 -34z"/>
<path d="M931 1115 c0 -33 -8 -92 -16 -130 -10 -49 -12 -79 -5 -100 5 -16 9
-37 8 -45 -4 -47 3 -90 14 -88 7 2 13 -1 13 -7 18 -186 34 -225 33 -80 -1 121
5 161 34 218 11 21 18 40 16 43 -3 2 -11 -9 -18 -26 -15 -36 -26 -38 -33 -7
-6 24 -34 203 -40 252 -2 17 -5 3 -6 -30z"/>
<path d="M1823 1134 c-35 -15 -42 -24 -19 -24 8 0 24 9 37 20 28 23 25 23 -18
4z"/>
<path d="M821 1024 c0 -11 3 -14 6 -6 3 7 2 16 -1 19 -3 4 -6 -2 -5 -13z"/>
<path d="M1182 818 c-5 -7 -24 -42 -41 -77 -17 -35 -41 -77 -54 -95 -55 -73
-95 -134 -102 -157 -4 -13 -25 -60 -46 -104 -22 -43 -39 -91 -39 -107 0 -15
-9 -52 -21 -83 -17 -47 -20 -68 -14 -126 l7 -69 57 0 57 0 -4 39 c-2 21 6 74
18 117 19 70 105 302 145 392 13 28 33 134 47 250 5 36 5 37 -10 20z m-15
-103 c-6 -19 -14 -35 -19 -35 -11 0 -10 14 4 45 17 37 28 30 15 -10z m-33 -44
c3 -5 -1 -11 -9 -14 -9 -4 -12 -1 -8 9 6 16 10 17 17 5z m-24 -51 c0 -5 -4
-10 -10 -10 -5 0 -10 5 -10 10 0 6 5 10 10 10 6 0 10 -4 10 -10z m10 -40 c0
-5 -4 -10 -10 -10 -5 0 -10 5 -10 10 0 6 5 10 10 10 6 0 10 -4 10 -10z m8 -37
c-7 -15 -21 -29 -31 -31 -24 -5 -22 19 3 25 10 3 22 14 26 25 3 11 8 17 11 15
3 -3 -1 -18 -9 -34z m-42 -59 c-6 -14 -4 -15 9 -4 15 12 14 10 0 -22 -10 -19
-23 -35 -31 -35 -17 0 -18 18 -2 52 12 27 34 35 24 9z m-28 -72 c10 -7 6 -25
-17 -83 -16 -41 -31 -82 -35 -92 -3 -10 -10 -15 -16 -12 -5 3 -10 1 -10 -6 0
-7 -3 -10 -6 -6 -8 8 6 48 15 42 5 -2 7 16 6 41 -1 26 2 39 7 32 7 -12 9 -11
12 11 0 5 4 13 9 17 4 4 7 20 7 36 0 29 6 33 28 20z m-82 -73 c-12 -28 -16
-31 -22 -16 -4 12 0 24 12 36 25 24 27 21 10 -20z"/>
<path d="M922 720 c0 -14 2 -19 5 -12 2 6 2 18 0 25 -3 6 -5 1 -5 -13z"/>
<path d="M2088 483 c7 -3 16 -2 19 1 4 3 -2 6 -13 5 -11 0 -14 -3 -6 -6z"/>
</g>
</svg>
